<?xml version="1.0" standalone="no"?>
<!DOCTYPE svg PUBLIC "-//W3C//DTD SVG 20010904//EN"
 "http://www.w3.org/TR/2001/REC-SVG-20010904/DTD/svg10.dtd">
<svg version="1.0" xmlns="http://www.w3.org/2000/svg"
 width="604.000000pt" height="317.000000pt" viewBox="0 0 604.000000 317.000000"
 preserveAspectRatio="xMidYMid meet">

<g transform="translate(0.000000,317.000000) scale(0.100000,-0.100000)"
fill="#000000" stroke="none">
<path d="M204 2971 c3 -5 32 -19 63 -32 63 -25 107 -50 203 -116 l62 -43 437
-1 c240 -1 450 0 466 0 17 1 39 -5 50 -13 19 -14 19 -14 -5 -24 -14 -6 -33
-13 -43 -16 -46 -14 -42 -112 6 -163 30 -32 31 -32 111 -29 45 2 92 6 106 10
22 6 147 -5 190 -16 74 -20 138 -50 170 -79 15 -13 51 -37 80 -53 30 -16 66
-37 80 -46 21 -15 91 -54 157 -89 10 -5 38 -17 63 -27 25 -10 63 -25 85 -34
22 -9 56 -23 75 -30 57 -22 220 -109 284 -151 32 -21 63 -39 68 -39 15 0 118
-101 160 -158 22 -29 51 -79 66 -110 29 -60 121 -227 180 -327 39 -66 145
-207 203 -270 20 -22 82 -90 138 -152 l103 -112 96 80 c54 45 130 109 171 142
41 34 79 67 85 72 6 6 31 26 56 46 25 20 56 47 70 59 14 12 47 40 73 62 l48
41 -29 31 c-57 61 -82 122 -82 200 0 68 -29 343 -43 406 -10 43 -21 97 -22
110 -1 8 -5 36 -10 62 -7 48 11 127 41 176 8 12 12 22 9 22 -13 0 57 120 84
143 28 24 49 29 198 52 59 9 73 23 78 78 3 40 0 49 -21 66 -13 10 -41 22 -61
26 -21 4 -46 11 -57 17 -19 10 -19 11 -1 24 15 11 112 14 524 14 l505 0 68 48
c38 26 77 52 86 57 9 6 29 19 44 29 15 10 54 29 85 42 l58 24 -2808 0 c-1607
0 -2806 -4 -2803 -9z m2115 -280 c209 -93 378 -159 541 -210 74 -24 153 -49
175 -57 l40 -14 -37 5 c-132 20 -520 151 -758 258 -74 33 -155 66 -180 73
l-45 13 54 0 c45 1 77 -10 210 -68z m290 16 c36 -30 108 -86 160 -125 51 -40
91 -72 87 -72 -7 0 -341 224 -360 242 -6 4 2 8 18 8 20 0 50 -17 95 -53z m324
-95 c81 -82 147 -151 147 -155 0 -9 -33 20 -265 232 -38 36 -72 66 -74 68 -2
2 7 3 20 3 18 0 62 -38 172 -148z m1212 133 c-115 -28 -164 -64 -259 -188 -67
-88 -102 -157 -111 -219 -11 -75 -20 -81 -85 -58 -63 21 -301 75 -377 85 -49
6 -53 9 -86 63 -45 72 -130 178 -208 259 -32 34 -59 65 -59 68 0 3 278 5 618
4 514 -1 609 -3 567 -14z"/>
<path d="M4310 1219 c-85 -72 -164 -138 -175 -147 -11 -9 -58 -48 -105 -87
-46 -38 -95 -80 -109 -93 -13 -12 -64 -55 -112 -94 l-87 -72 21 -31 c12 -16
32 -41 44 -55 12 -14 30 -35 41 -48 11 -12 23 -22 28 -22 10 0 69 48 313 254
144 121 259 217 295 246 10 8 26 22 35 30 9 9 37 33 63 53 l47 38 -67 79 c-37
44 -69 80 -72 79 -3 0 -75 -59 -160 -130z m-370 -439 c45 -45 11 -120 -53
-120 -59 0 -88 57 -56 109 15 25 25 31 54 31 22 0 43 -8 55 -20z"/>
<path d="M4633 1123 c-36 -32 -79 -68 -213 -179 -52 -43 -97 -81 -100 -84 -3
-3 -30 -26 -61 -51 -30 -24 -80 -66 -110 -91 -30 -26 -115 -98 -190 -161
l-136 -114 151 -180 c83 -99 167 -199 187 -222 l36 -42 164 138 c90 75 198
166 240 202 42 36 155 133 252 215 98 82 177 153 177 157 0 7 -40 57 -235 293
-66 80 -123 145 -126 146 -3 0 -19 -12 -36 -27z"/>
</g>
</svg>
